<svg width="17" height="16" viewBox="0 0 17 16" fill="none" xmlns="http://www.w3.org/2000/svg">
<path fill-rule="evenodd" clip-rule="evenodd" d="M10.8239 6.52792C9.86395 6.07992 9.60784 4.608 10.248 3.26388C10.8879 1.98397 12.1679 1.27999 13.1918 1.72799C14.152 2.17599 14.4079 3.64791 13.768 4.99191C13.1279 6.3359 11.8478 7.03988 10.8239 6.52792ZM5.25604 3.26388C5.0639 1.79196 5.83196 0.511928 6.85589 0.319912C7.94402 0.191982 8.96795 1.27999 9.15984 2.75192C9.35198 4.22396 8.64788 5.50399 7.55999 5.63192C6.47186 5.82394 5.44793 4.73593 5.25604 3.26388ZM3.97601 8.51193C3.08001 9.02389 1.79998 8.44796 1.22381 7.16793C0.583916 5.8879 0.84002 4.41598 1.73602 3.9039C2.63201 3.32797 3.84783 3.96798 4.48797 5.24789C5.12786 6.52792 4.872 7.936 3.97601 8.51193ZM12.3976 11.0826C13.1301 11.8156 13.8803 12.5664 13.4479 13.8239C12.5268 16.2624 10.5046 15.8104 8.58514 15.3813C8.23772 15.3037 7.89349 15.2268 7.55999 15.1679C7.31194 15.1303 7.05438 15.0954 6.79168 15.0598C4.81756 14.7923 2.56438 14.487 2.05584 12.7359C1.67205 10.3679 3.08001 9.21591 5.19183 8.76791C5.69183 8.66268 6.00774 8.29769 6.34441 7.9089C6.82684 7.35202 7.35149 6.74618 8.51995 6.7839C10.0558 6.84799 10.8239 7.80795 11.3359 9.59994C11.4841 10.1681 11.9374 10.6218 12.3976 11.0826ZM16.3278 6.65597C16.904 7.488 16.456 8.89596 15.4318 9.85592C14.4079 10.8159 13.1279 10.9439 12.6159 10.1119C12.1039 9.34396 12.488 7.87191 13.5119 6.91195C14.6 5.95199 15.8158 5.82394 16.3278 6.65597Z" fill="#8EAF9D"/>
</svg>
