<svg width="230" height="53" viewBox="0 0 230 53" fill="none" xmlns="http://www.w3.org/2000/svg">
<path d="M22.696 42.168C24.168 41.784 25.576 42.68 25.96 44.088C26.344 45.496 25.448 46.968 24.04 47.288C23.4 47.48 22.888 47.736 22.376 48.056C21.864 48.376 21.352 48.824 20.904 49.4C20.008 50.488 18.344 50.68 17.192 49.72C16.04 48.824 15.912 47.16 16.808 46.008C17.064 45.688 17.384 45.368 17.704 45.048C14.888 39.544 13.16 38.136 10.536 35.96C10.6 37.688 10.728 39.416 10.792 41.144C12.2 40.888 13.608 41.848 13.864 43.32C14.12 44.728 13.16 46.136 11.688 46.392C11.112 46.52 10.472 46.712 9.96 47.032C9.448 47.352 8.936 47.8 8.488 48.376C7.528 49.464 5.864 49.656 4.712 48.76C3.56 47.8 3.432 46.136 4.328 44.984C4.712 44.536 5.16 44.088 5.608 43.704C5.416 40.76 5.288 37.88 5.16 34.936C4.456 34.744 3.752 34.552 2.984 34.232C1.64 33.72 0.936 32.184 1.512 30.84C2.024 29.432 3.56 28.792 4.904 29.304H5.032C5.032 28.6 4.968 27.896 4.968 27.128C4.904 24.184 4.904 21.24 4.968 18.296C4.008 18.744 2.856 18.552 2.024 17.784C1 16.76 0.936 15.032 1.96 14.008C3.048 12.856 4.136 11.896 5.16 11.064C5.224 10.424 5.224 9.784 5.288 9.208C5.352 7.736 6.632 6.584 8.04 6.712C8.936 6.712 9.64 7.16 10.088 7.864C12.392 6.776 14.504 6.392 16.36 6.584C19.048 6.84 21.224 8.12 22.888 9.976C24.488 11.832 25.512 14.328 25.896 17.016C26.28 19.576 26.024 22.392 25.064 25.016C23.848 28.6 21.352 31.8 17.576 33.784C17.256 33.912 16.936 34.04 16.616 34.232C18.472 35.96 20.072 38.072 22.248 42.296C22.44 42.232 22.568 42.168 22.696 42.168ZM21.992 19.96C21.608 19.192 20.52 19.192 19.56 19.96C18.6 20.664 18.088 21.88 18.536 22.584C18.92 23.352 20.008 23.352 20.968 22.584C21.928 21.88 22.376 20.664 21.992 19.96ZM17 16.504C16.36 17.592 16.488 18.872 17.256 19.384C18.088 19.896 19.24 19.384 19.944 18.296C20.584 17.208 20.456 15.928 19.688 15.416C18.856 14.968 17.704 15.416 17 16.504ZM14.376 13.752C13.48 13.752 12.712 14.776 12.776 16.056C12.776 17.336 13.608 18.36 14.504 18.36C15.464 18.296 16.168 17.272 16.168 15.992C16.104 14.712 15.336 13.688 14.376 13.752ZM9.64 16.312C8.872 16.696 8.552 17.976 8.936 19.128C9.384 20.216 10.408 20.856 11.176 20.472C12.008 20.088 12.328 18.872 11.944 17.72C11.496 16.568 10.472 15.928 9.64 16.312ZM9.192 23.928C9.512 25.72 11.944 26.04 13.736 26.552C15.528 27 17.704 28.216 18.856 25.848C19.688 24.184 17.64 23.352 17.448 22.008C17.192 20.472 16.552 19.512 15.208 19.384C13.544 19.192 13.288 20.664 12.2 20.792C10.408 21.048 9.064 21.944 9.192 23.928ZM44.4185 13.112C47.2345 15.608 49.4105 20.6 48.5145 28.536C48.1305 32.248 46.7865 35.64 44.8025 38.008C42.7545 40.504 40.0025 41.976 36.7385 41.72C36.5465 41.72 36.4185 41.656 36.2905 41.656C31.1705 40.44 28.2265 35.832 27.2665 30.84C26.8825 28.856 26.8185 26.808 27.0745 24.888C27.2665 22.904 27.8425 20.984 28.7385 19.384C29.8265 17.464 31.3625 15.992 33.2825 15.224C33.7305 14.264 34.3705 13.432 35.0745 12.792C36.3545 11.64 38.0185 11.064 39.6825 11.128C41.2825 11.256 42.9465 11.896 44.4185 13.112ZM39.8105 22.264C39.1705 23.608 39.4265 25.08 40.3865 25.528C41.4105 26.04 42.6905 25.336 43.3305 23.992C43.9705 22.648 43.7145 21.176 42.7545 20.728C41.7305 20.28 40.4505 20.984 39.8105 22.264ZM36.4185 19.32C35.3945 19.512 34.6265 20.792 34.8185 22.264C35.0105 23.736 36.0345 24.824 37.1225 24.632C38.2105 24.504 38.9145 23.224 38.7225 21.752C38.5305 20.28 37.5065 19.192 36.4185 19.32ZM30.7865 26.168C31.3625 27.448 32.6425 28.024 33.5385 27.512C34.4345 26.936 34.6905 25.528 34.0505 24.248C33.4105 22.968 32.1945 22.328 31.2985 22.904C30.4025 23.416 30.1465 24.888 30.7865 26.168ZM43.0105 32.824C43.7145 30.776 41.2825 30.072 40.8985 28.6C40.3865 26.808 39.6185 25.848 38.0825 25.784C36.0985 25.72 35.9705 27.512 34.7545 27.768C32.6425 28.216 31.2345 29.368 31.6185 31.736C32.1945 33.72 35.0105 33.848 37.1225 34.168C39.2985 34.552 41.9225 35.704 43.0105 32.824ZM44.9945 28.856C46.0185 27.896 46.4665 26.488 45.8905 25.656C45.3785 24.824 44.1625 24.952 43.0745 25.912C42.0505 26.872 41.6665 28.344 42.1785 29.112C42.6905 29.944 43.9705 29.816 44.9945 28.856ZM70.8165 40.12C71.9045 41.08 71.9685 42.808 70.9445 43.832C70.6885 44.088 70.5605 44.408 70.4325 44.728C70.3045 45.048 70.2405 45.496 70.2405 45.944C70.2405 47.416 69.0245 48.568 67.5525 48.568C66.4645 48.568 65.5045 47.928 65.1205 46.968L52.3845 46.52C50.9125 46.52 49.7605 45.24 49.8245 43.832C49.8245 43.32 50.0165 42.808 50.2725 42.424L61.9845 23.48L54.4325 23.416C54.3685 23.48 54.3685 23.48 54.3045 23.544C53.4725 24.76 51.8085 24.952 50.5925 24.12C49.4405 23.224 49.1845 21.56 50.0805 20.408C50.2725 20.088 50.4005 19.832 50.4645 19.448C50.5925 19.128 50.5925 18.68 50.5285 18.232C50.4005 16.824 51.4245 15.48 52.8965 15.288C54.3685 15.16 55.6485 16.184 55.8405 17.656C55.8405 17.784 55.9045 17.976 55.9045 18.104L66.6565 18.232C67.1685 18.232 67.6165 18.36 68.0645 18.616C69.3445 19.384 69.7285 21.048 68.9605 22.264L57.1205 41.4L65.9525 41.72C66.2725 41.208 66.6565 40.696 67.0405 40.248C68.0645 39.16 69.7285 39.096 70.8165 40.12ZM106.056 39.608C106.248 41.08 105.288 42.424 103.816 42.68C103.432 42.744 103.048 42.808 102.728 43C102.408 43.192 102.152 43.384 101.896 43.704C100.872 44.792 99.2075 44.856 98.1195 43.896C97.0315 42.872 96.9675 41.208 97.9275 40.12C98.1195 39.928 98.3755 39.736 98.5675 39.544C98.5035 37.816 98.5035 36.088 98.4395 34.488C98.4395 31.416 98.3755 28.664 98.1195 26.36C97.8635 23.928 97.2235 22.456 96.4555 21.752C96.1355 21.432 95.7515 21.304 95.4315 21.304C94.9835 21.24 94.4715 21.432 93.8955 21.688C92.6155 22.392 91.4635 23.864 90.8235 25.656V25.784C91.0795 28.216 91.1435 31.096 91.2075 34.424C91.2075 35.384 91.2075 36.344 91.2715 37.368C92.3595 37.56 93.2555 38.456 93.4475 39.608C93.7035 41.08 92.7435 42.424 91.2715 42.68C90.8875 42.744 90.5035 42.808 90.1835 43C89.8635 43.192 89.5435 43.384 89.2875 43.704C88.3275 44.792 86.6635 44.856 85.5755 43.896C84.4875 42.872 84.3595 41.208 85.3835 40.12C85.5755 39.928 85.7675 39.736 86.0235 39.544C85.9595 37.816 85.8955 36.088 85.8955 34.488C85.8315 31.416 85.8315 28.664 85.5755 26.36C85.2555 23.928 84.6795 22.456 83.8475 21.752C83.5275 21.432 83.2075 21.304 82.8235 21.304C82.3755 21.24 81.8635 21.432 81.3515 21.688C80.1355 22.392 79.0475 23.672 78.4075 25.336C78.3435 27.32 78.4075 29.304 78.4075 31.352C78.5355 35.768 78.7275 40.248 78.9835 44.792C80.3915 44.728 81.6075 45.688 81.7995 47.096C82.0555 48.568 81.0315 49.912 79.5595 50.104C79.0475 50.168 78.5995 50.296 78.2155 50.488C77.8315 50.68 77.4475 50.936 77.1275 51.256C76.1035 52.28 74.4395 52.28 73.3515 51.256C72.3275 50.168 72.3915 48.504 73.4155 47.48C73.5435 47.352 73.6715 47.224 73.7995 47.096C73.7995 47.032 73.7995 46.968 73.7995 46.904C73.4795 41.784 73.2235 36.664 73.0955 31.416C73.0315 26.168 73.0955 20.984 73.4155 15.864C73.4795 14.392 74.7595 13.304 76.2315 13.368C77.7035 13.432 78.7915 14.712 78.7275 16.184C78.7275 16.504 78.6635 16.824 78.6635 17.144C78.7275 17.08 78.7275 17.08 78.7915 17.08C80.1355 16.312 81.6715 15.928 83.1435 15.992C84.6795 16.056 86.2155 16.632 87.4955 17.848C87.8795 18.232 88.2635 18.68 88.6475 19.192C89.4795 18.296 90.3755 17.592 91.3355 17.08C92.7435 16.312 94.2155 15.928 95.6875 15.992C97.2875 16.056 98.7595 16.632 100.04 17.848C101.704 19.384 102.984 21.944 103.432 25.784C103.688 28.216 103.752 31.096 103.752 34.424C103.816 35.384 103.816 36.344 103.816 37.368C104.904 37.56 105.864 38.456 106.056 39.608ZM126.607 15.672C129.423 18.104 131.279 22.2 130.959 27.896C130.895 29.304 129.743 30.392 128.335 30.392L111.695 30.52V30.776C111.759 35.896 113.999 39.544 116.623 41.08C117.391 41.592 118.159 41.848 118.863 41.912C119.503 41.976 120.079 41.848 120.527 41.592C121.423 41.144 122.127 40.12 122.447 38.456C122.319 38.392 122.191 38.392 122.062 38.328C120.655 37.816 119.951 36.28 120.527 34.872C121.039 33.528 122.575 32.824 123.919 33.336C124.367 33.528 124.751 33.592 125.199 33.592C125.263 33.592 125.263 33.592 125.327 33.592C125.391 33.592 125.391 33.592 125.391 33.592C125.775 33.592 126.223 33.528 126.607 33.4C128.015 33.016 129.487 33.848 129.871 35.256C130.255 36.664 129.487 38.136 128.015 38.52C127.951 38.52 127.887 38.584 127.759 38.584C127.247 42.488 125.455 44.984 123.087 46.328C121.615 47.096 120.015 47.352 118.415 47.224C116.879 47.096 115.279 46.52 113.871 45.624C109.903 43.256 106.447 38.008 106.447 30.776C106.383 29.944 106.447 29.048 106.575 28.216C106.703 27.32 106.831 26.424 107.087 25.592C108.687 19.512 112.143 15.736 115.919 14.2C117.775 13.368 119.695 13.112 121.487 13.368C123.343 13.624 125.135 14.392 126.607 15.672ZM120.271 18.744C120.079 19.768 120.527 20.728 121.295 20.92C122.062 21.048 122.831 20.344 123.087 19.256C123.279 18.232 122.831 17.272 122.062 17.08C121.295 16.952 120.463 17.656 120.271 18.744ZM117.391 17.272C116.623 17.528 116.367 18.616 116.751 19.576C117.135 20.6 118.095 21.176 118.799 20.856C119.567 20.6 119.823 19.512 119.439 18.552C119.055 17.528 118.095 16.952 117.391 17.272ZM114.639 23.032C115.279 23.864 116.239 24.056 116.815 23.48C117.327 22.968 117.263 21.88 116.559 21.112C115.919 20.344 114.959 20.152 114.383 20.664C113.871 21.176 113.999 22.264 114.639 23.032ZM124.431 25.528C124.559 23.992 122.703 23.928 122.191 22.904C121.551 21.752 120.783 21.24 119.695 21.496C118.287 21.816 118.543 23.032 117.711 23.48C116.303 24.184 115.535 25.272 116.239 26.808C117.007 28.088 118.991 27.704 120.527 27.576C122.127 27.448 124.175 27.768 124.431 25.528ZM125.135 22.392C125.647 21.496 125.711 20.472 125.199 19.96C124.687 19.512 123.791 19.832 123.279 20.664C122.703 21.56 122.703 22.648 123.215 23.096C123.727 23.544 124.559 23.224 125.135 22.392ZM149.228 23.544C149.42 25.016 148.396 26.36 146.924 26.488C145.452 26.68 144.172 25.656 143.98 24.248C143.852 23.224 143.468 22.584 143.02 22.2C142.764 22.008 142.444 21.88 142.06 21.88C141.612 21.816 141.1 21.944 140.652 22.2C139.628 22.712 138.732 23.736 138.092 25.272C138.028 27.192 138.092 29.048 138.092 30.904C138.156 33.976 138.412 37.24 138.668 40.952C140.076 40.824 141.292 41.848 141.484 43.192C141.74 44.664 140.716 46.008 139.244 46.264C138.732 46.328 138.284 46.456 137.9 46.648C137.516 46.84 137.132 47.096 136.812 47.416C135.788 48.44 134.124 48.376 133.036 47.352C132.012 46.328 132.076 44.6 133.1 43.576C133.228 43.448 133.356 43.32 133.484 43.256V43.192C133.164 38.712 132.908 34.936 132.78 31.032C132.78 29.048 132.716 27.128 132.78 25.144C132.78 24.888 132.78 24.632 132.78 24.44C132.844 22.584 132.972 20.728 133.1 18.744C133.164 17.272 134.444 16.12 135.916 16.248C136.876 16.312 137.644 16.824 138.028 17.592C138.092 17.528 138.156 17.528 138.156 17.528C139.5 16.824 140.972 16.504 142.316 16.568C143.788 16.632 145.132 17.08 146.348 18.04C147.82 19.192 148.908 21.048 149.228 23.544ZM173.768 45.304C173.96 46.776 173 48.12 171.528 48.312C171.016 48.376 170.568 48.504 170.12 48.696C169.736 48.888 169.416 49.144 169.096 49.464C168.072 50.488 166.344 50.488 165.32 49.4C164.296 48.376 164.296 46.712 165.384 45.688C165.512 45.56 165.64 45.432 165.768 45.304C165.768 45.176 165.768 45.112 165.768 45.048C165.704 44.152 165.64 43.32 165.64 42.424C164.68 42.808 163.784 43.064 162.888 43.256C160.968 43.704 159.24 43.64 157.64 43.192C157.576 43.128 157.512 43.128 157.384 43.128L157.32 43.064C153.48 41.848 151.048 38.648 149.896 34.808C148.872 31.288 148.936 27.128 150.024 23.608L150.088 23.416C151.112 20.152 153.032 17.784 155.272 16.44C156.936 15.416 158.792 14.968 160.648 15.032C162.184 15.032 163.656 15.416 165.064 16.184C165.064 13.24 165.192 10.296 165.32 7.352C165.064 7.288 164.808 7.288 164.552 7.224C163.144 6.968 162.12 5.624 162.376 4.152C162.632 2.744 163.976 1.72 165.448 1.976C165.896 2.04 166.344 2.04 166.728 1.976C167.176 1.912 167.624 1.72 168.072 1.4C169.352 0.631996 170.952 1.016 171.72 2.296C172.488 3.576 172.104 5.176 170.888 5.944C170.824 6.008 170.76 6.072 170.632 6.072C170.696 6.2 170.696 6.328 170.696 6.456C170.376 12.344 170.312 18.168 170.376 23.992C170.376 24.056 170.376 24.12 170.376 24.184C170.376 24.632 170.376 25.144 170.376 25.592C170.44 31.352 170.696 37.176 170.952 43C172.36 42.936 173.576 43.896 173.768 45.304ZM162.44 25.208C162.376 26.552 163.08 27.768 163.976 27.96C164.872 28.152 165.64 27.256 165.64 25.912C165.704 24.568 165.064 23.352 164.168 23.16C163.272 22.968 162.504 23.864 162.44 25.208ZM158.728 21.944C157.768 22.264 157.384 23.608 157.832 24.952C158.28 26.296 159.432 27.064 160.392 26.744C161.352 26.424 161.8 25.08 161.352 23.736C160.904 22.392 159.752 21.624 158.728 21.944ZM153.608 25.144C152.968 25.976 153.352 27.32 154.44 28.216C155.528 29.048 156.936 29.112 157.576 28.344C158.216 27.512 157.832 26.168 156.744 25.272C155.656 24.44 154.248 24.376 153.608 25.144ZM157 32.632C157.256 31.672 156.488 30.52 155.208 30.072C153.928 29.624 152.712 30.008 152.456 30.968C152.2 31.928 153.032 33.08 154.312 33.528C155.528 33.976 156.744 33.592 157 32.632ZM163.848 34.744C165.576 33.528 168.072 32.568 166.92 29.944C166.088 28.088 163.976 29.176 162.696 28.472C161.224 27.576 160.008 27.448 158.92 28.408C157.576 29.688 158.664 30.968 158.024 31.992C156.936 33.656 156.744 35.448 158.536 36.728C160.264 37.688 162.248 35.896 163.848 34.744ZM195.79 42.488C195.982 43.96 195.022 45.304 193.55 45.496C193.038 45.624 192.526 45.752 192.142 45.944C191.758 46.136 191.438 46.392 191.118 46.712C190.03 47.736 188.366 47.672 187.342 46.648C186.318 45.624 186.318 43.896 187.342 42.872C187.662 42.616 187.918 42.36 188.238 42.104C188.238 41.272 188.174 40.504 188.11 39.672C183.758 42.104 180.174 42.168 177.55 41.016C174.862 39.8 173.262 37.432 172.942 34.808C172.558 32.248 173.454 29.496 175.63 27.512C178.062 25.4 182.03 24.248 187.79 25.592C187.79 24.632 187.726 23.672 187.726 22.712C187.726 20.152 186.766 18.552 185.486 17.784C185.038 17.528 184.526 17.336 184.014 17.336C183.502 17.272 183.054 17.4 182.606 17.592C181.518 18.04 180.622 19.256 180.43 21.24C180.302 22.648 179.022 23.736 177.55 23.608C176.078 23.48 174.99 22.136 175.182 20.664C175.566 16.568 177.742 13.944 180.366 12.728C181.646 12.152 182.99 11.896 184.334 12.024C185.678 12.088 187.022 12.536 188.238 13.24C190.926 14.84 193.038 18.04 193.038 22.712C193.102 26.104 193.102 29.496 193.23 32.952C193.294 35.32 193.358 37.752 193.486 40.248C194.638 40.376 195.598 41.272 195.79 42.488ZM182.99 28.28C182.286 28.344 182.03 29.176 182.35 30.072C182.606 30.968 183.374 31.672 184.014 31.544C184.654 31.48 184.974 30.648 184.654 29.752C184.398 28.792 183.63 28.152 182.99 28.28ZM179.022 28.792C178.446 29.304 178.51 30.264 179.15 31.096C179.726 31.864 180.75 32.12 181.326 31.608C181.902 31.16 181.838 30.136 181.198 29.368C180.558 28.6 179.598 28.344 179.022 28.792ZM176.334 32.312C176.142 33.016 176.718 33.848 177.678 34.104C178.638 34.424 179.598 34.104 179.79 33.4C180.046 32.696 179.47 31.864 178.51 31.544C177.55 31.288 176.59 31.608 176.334 32.312ZM178.894 37.752C179.918 37.752 180.622 37.176 180.558 36.408C180.494 35.704 179.662 35.192 178.638 35.192C177.678 35.192 176.974 35.768 177.038 36.472C177.102 37.176 177.934 37.752 178.894 37.752ZM185.678 36.152C186.574 34.872 187.982 33.592 186.51 32.12C185.486 31.096 184.334 32.376 183.31 32.184C182.094 31.992 181.262 32.184 180.75 33.144C180.174 34.36 181.262 34.936 181.07 35.768C180.75 37.176 181.07 38.392 182.606 38.84C184.014 39.032 184.91 37.368 185.678 36.152ZM217.823 39.608C218.079 41.08 217.119 42.424 215.647 42.68C215.263 42.744 214.878 42.808 214.559 43C214.239 43.192 213.919 43.384 213.663 43.704C212.703 44.792 211.039 44.856 209.951 43.896C208.863 42.872 208.799 41.208 209.759 40.12C209.951 39.928 210.143 39.736 210.399 39.544C210.335 37.816 210.271 36.088 210.271 34.488C210.207 31.416 210.207 28.664 209.951 26.36C209.631 23.928 209.055 22.456 208.223 21.752C207.903 21.432 207.583 21.304 207.199 21.304C206.751 21.24 206.239 21.432 205.727 21.688C204.51 22.392 203.423 23.672 202.783 25.336C202.719 27.32 202.783 29.304 202.783 31.352C202.911 35.768 203.103 40.248 203.359 44.792C204.767 44.728 205.983 45.688 206.175 47.096C206.431 48.568 205.407 49.912 203.935 50.104C203.423 50.168 202.975 50.296 202.591 50.488C202.207 50.68 201.823 50.936 201.503 51.256C200.479 52.28 198.815 52.28 197.727 51.256C196.703 50.168 196.767 48.504 197.791 47.48C197.919 47.352 198.047 47.224 198.174 47.096C198.174 47.032 198.174 46.968 198.174 46.904C197.855 41.784 197.599 36.664 197.471 31.416C197.407 26.168 197.471 20.984 197.791 15.864C197.855 14.392 199.135 13.304 200.607 13.368C202.079 13.432 203.167 14.712 203.103 16.184C203.103 16.504 203.039 16.824 203.039 17.144C203.103 17.08 203.103 17.08 203.167 17.08C204.51 16.312 206.047 15.928 207.519 15.992C209.055 16.056 210.591 16.632 211.871 17.848C213.535 19.384 214.815 21.944 215.199 25.784C215.455 28.216 215.519 31.096 215.583 34.424C215.583 35.384 215.583 36.344 215.647 37.368C216.735 37.56 217.631 38.456 217.823 39.608ZM220.221 14.968C221.117 14.456 220.861 13.048 222.461 12.6C223.677 12.344 224.573 12.92 225.341 14.264C225.981 15.416 228.093 15.48 227.965 17.208C227.709 19.768 225.341 19.448 223.485 19.64C221.693 19.768 219.453 20.28 218.493 18.808C217.661 17.016 218.621 15.8 220.221 14.968ZM226.493 14.456C225.917 13.88 225.917 12.664 226.557 11.64C227.197 10.68 228.157 10.296 228.733 10.808C229.373 11.384 229.309 12.6 228.733 13.624C228.093 14.584 227.069 14.968 226.493 14.456ZM224.253 11.96C223.357 11.768 222.845 10.68 223.101 9.464C223.293 8.248 224.189 7.352 225.085 7.544C225.981 7.736 226.557 8.824 226.301 10.04C226.109 11.256 225.149 12.088 224.253 11.96ZM229.629 40.376C229.821 41.848 228.797 43.192 227.325 43.384C226.621 43.448 225.981 43.64 225.405 43.896C224.893 44.152 224.381 44.472 223.933 44.856C222.845 45.816 221.181 45.752 220.157 44.664C219.197 43.576 219.261 41.912 220.349 40.888C220.605 40.696 220.925 40.44 221.181 40.248C220.925 37.88 220.733 35.576 220.669 33.272C220.605 31.288 220.669 29.368 220.797 27.256C220.541 27.256 220.285 27.192 219.965 27.064C218.557 26.68 217.725 25.272 218.109 23.8C218.493 22.392 219.965 21.56 221.373 21.944C222.013 22.136 222.653 22.2 223.229 22.136C223.869 22.072 224.509 21.944 225.085 21.688C226.429 21.112 228.029 21.752 228.605 23.096C229.117 24.44 228.541 26.04 227.133 26.616C226.813 26.744 226.493 26.872 226.173 26.936C225.981 29.112 225.917 31.16 225.981 33.144C226.045 34.744 226.109 36.408 226.301 38.136C226.429 38.136 226.557 38.072 226.621 38.072C228.093 37.88 229.437 38.904 229.629 40.376ZM219.133 14.968C218.557 15.608 217.405 15.416 216.637 14.52C215.869 13.624 215.741 12.408 216.381 11.768C216.957 11.128 218.109 11.32 218.877 12.216C219.645 13.112 219.773 14.392 219.133 14.968ZM221.437 11.96C220.605 12.28 219.517 11.64 219.069 10.488C218.621 9.336 218.877 8.12 219.773 7.8C220.605 7.416 221.629 8.12 222.141 9.208C222.589 10.36 222.269 11.576 221.437 11.96Z" fill="#46237A"/>
</svg>
